<svg id="Layer_1" enable-background="new 0 0 512 512" height="512" viewBox="0 0 512 512" width="512" xmlns="http://www.w3.org/2000/svg"><g><path d="m445.846 421.86c34.471-42.208 55.156-96.117 55.156-154.862 0-135.311-109.691-245.002-245.002-245.002s-245.002 109.691-245.002 245.002c0 58.746 20.685 112.655 55.157 154.863z" fill="#73c3f9"/><ellipse cx="256" cy="172.518" fill="#1c2e7a" rx="99.609" ry="29.032"/><path d="m256 143.486c-1.676 0-3.34.013-4.996.037-1.615 1.91-2.549 3.023-2.549 3.023s59.565 24.862 4.357 54.98c1.061.01 2.119.024 3.188.024 55.013 0 99.609-12.998 99.609-29.032-.001-16.034-44.597-29.032-99.609-29.032z" fill="#142766"/><path d="m185.965 153.225c-8.153 2.414-15.824 5.242-20.695 8.366.808 14.538 3.58 27.554 3.58 27.554 2.629.176 6.334 1.24 8.386 2.234.503-3.128 1.323-7.161 2.482-10.137.883-2.268 1.987-4.559 3.366-6.724 2.394-3.756 3.484-8.186 3.159-12.616-.183-2.494-.311-5.462-.278-8.677z" fill="#a05838"/><path d="m326.035 153.225c.033 3.168-.091 6.096-.27 8.567-.324 4.463.738 8.94 3.15 12.725 1.424 2.234 2.554 4.604 3.451 6.943 1.115 2.909 1.908 6.867 2.398 9.918 2.587-1.253 7.238-2.618 10.401-2.171.321-11.125 1.227-23.914 1.527-27.641-4.867-3.114-12.525-5.933-20.657-8.341z" fill="#a05838"/><path d="m349.868 189.996c-3.92-3.592-11.728-1.771-15.103.428.74 4.605.782 9.317.143 13.97l-3.984 29.015c0 2.339-.074 4.634-.209 6.888 9.714 2.93 14.54-5.791 15.353-11.776.35-2.576.922-5.116 1.715-7.594 2.584-8.069 11.906-21.931 2.085-30.931z" fill="#fcad6d"/><path d="m342.491 214.422c-3.178 0-6.132-.949-8.608-2.567l-2.96 21.554c0 2.339-.074 4.633-.209 6.888 9.714 2.93 14.54-5.791 15.353-11.776.35-2.576.922-5.116 1.715-7.594.845-2.637 2.408-5.895 3.788-9.397-2.568 1.816-5.696 2.892-9.079 2.892z" fill="#fd995b"/><path d="m162.132 189.996c3.92-3.592 11.728-1.771 15.104.428-.74 4.605-.782 9.317-.143 13.97l3.984 29.015c0 2.339.074 4.634.209 6.888-9.714 2.93-14.54-5.791-15.353-11.776-.35-2.576-.922-5.116-1.715-7.594-2.585-8.069-11.907-21.931-2.086-30.931z" fill="#fcad6d"/><path d="m178.252 212.837c-2.075 1.005-4.395 1.585-6.855 1.585-4.77 0-9.036-2.127-11.927-5.475 1.539 4.473 3.698 8.704 4.748 11.981.793 2.478 1.366 5.017 1.715 7.594.813 5.985 5.639 14.706 15.353 11.776-.135-2.255-.209-4.55-.209-6.888z" fill="#fd995b"/><path d="m312.519 368.888 18.126-24.693c-3.916-1.151-7.891-2.195-11.935-3.128-9.698-9.698-12.157-28.086-12.6-40.95-5.061 5.895-10.373 10.826-15.449 14.768-9.889 7.68-22.092 11.851-34.661 11.851-12.568 0-24.771-4.171-34.66-11.851-5.076-3.941-10.388-8.873-15.449-14.768-.443 12.864-2.901 31.252-12.6 40.95-4.045.933-8.019 1.978-11.934 3.128l18.125 24.693z" fill="#fcad6d"/><path d="m231.144 357.403c1.681-.167 3.225-1.003 4.27-2.329 6.774-8.602 11.116-18.83 13.901-28.738-10.166-1.206-19.852-5.141-27.976-11.45-5.075-3.941-10.388-8.873-15.449-14.768-.443 12.864-2.901 31.252-12.6 40.95-4.045.933-8.019 1.978-11.934 3.128l18.125 24.693h16.578c5.327-9.209 11.722-11.152 15.085-11.486z" fill="#fd995b"/><path d="m210.437 383.814 35.951 48.977c4.764 6.491 14.459 6.491 19.224 0l35.951-48.977z" fill="#bec8f7"/><path d="m329.869 174.517c-2.412-3.785-3.474-8.261-3.15-12.725.179-2.471.303-5.399.27-8.567-18.068-5.35-43.197-8.669-70.99-8.669-27.792 0-52.921 3.319-70.988 8.669-.034 3.215.094 6.183.277 8.677.326 4.429-.765 8.86-3.159 12.616-1.38 2.165-2.483 4.456-3.366 6.723-2.863 7.356-3.698 15.335-2.626 23.146l3.985 29.021c0 41.723 22.272 70.082 41.217 84.793 9.889 7.679 22.092 11.85 34.66 11.85s24.772-4.171 34.66-11.85c18.945-14.712 41.217-43.07 41.217-84.793l3.984-29.015c1.062-7.735.257-15.635-2.541-22.934-.895-2.338-2.025-4.707-3.45-6.942z" fill="#f9ba8f"/><path d="m271.202 317.518c-18.945-15.561-41.217-45.558-41.217-89.69l-3.985-30.697c-1.072-8.263-.237-16.702 2.626-24.483.883-2.399 1.987-4.822 3.366-7.112 2.394-3.973 3.484-8.659 3.159-13.344-.143-2.057-.249-4.424-.274-6.976-19.293 1.215-36.511 4.055-49.865 8.009-.034 3.215.094 6.183.277 8.677.326 4.429-.765 8.86-3.159 12.616-1.379 2.165-2.483 4.456-3.366 6.724-2.863 7.356-3.698 15.334-2.626 23.146l3.985 29.022c0 41.723 22.272 70.081 41.217 84.793 9.888 7.679 22.092 11.85 34.66 11.85 8.825 0 17.467-2.064 25.257-5.947-3.543-1.809-6.916-4.009-10.055-6.588z" fill="#fcad6d"/><path d="m447.457 419.86c-4.315-7.451-9.78-14.314-16.701-19.993l-164.545 99.815c-6.146 3.728-14.277 3.728-20.423 0l-164.543-99.814c-6.921 5.679-12.386 12.542-16.701 19.993 44.895 56.156 113.968 92.139 191.456 92.139s146.562-35.983 191.457-92.14z" fill="#3c58a0"/><path d="m138.038 439.39c1.12-1.015 1.772-2.412 1.934-3.897l-58.727-35.625c-6.921 5.679-12.386 12.542-16.701 19.993 17.155 21.459 37.851 39.958 61.188 54.643 1.457-22.393 8.541-31.704 12.306-35.114z" fill="#1c2e7a"/><path d="m273.958 372.114c-.889-2.462-.678-5.138.502-7.385h-18.622-17.763c1.18 2.247 1.39 4.923.502 7.385-1.058 2.931-2.702 6.731-5.101 10.694l10.861 14.626h23.327l11.154-15.021c-2.27-3.82-3.837-7.465-4.86-10.299z" fill="#e80054"/><path d="m267.664 397.434c-8.402 0-14.997 0-23.327 0l-7.531 22.302 9.583 13.055c4.764 6.491 14.459 6.491 19.224 0l9.583-13.055z" fill="#ff7186"/><path d="m248.639 434.843 5.924-17.541c1.756-5.201 6.634-8.702 12.123-8.702h4.749l-3.771-11.167c-8.402 0-14.997 0-23.327 0l-7.531 22.302 9.583 13.055c.771 1.051 1.682 1.914 2.67 2.624z" fill="#ff4155"/><path d="m293.645 399.342 35.179-47.925c.494-4.591.663-7.553.663-7.553l-11.578-14.341c-2.955-3.66-8.453-3.891-11.704-.492l-32.164 33.626c-2.409 2.519-3.175 6.178-1.991 9.457 2.635 7.302 8.823 19.971 21.595 27.228z" fill="#e9efff"/><path d="m218.51 399.553c13.029-7.219 19.313-20.065 21.974-27.439 1.184-3.279.418-6.938-1.991-9.457l-32.164-33.626c-3.252-3.399-8.749-3.168-11.704.492l-12.112 14.341s.195 3.003.735 7.651z" fill="#e9efff"/><path d="m231.144 357.403c.648-.064 1.274-.23 1.861-.483l-26.676-27.888c-3.251-3.399-8.749-3.168-11.704.492l-12.112 14.341s.195 3.003.735 7.651l24.324 33.137c1.789-.708 3.175-2.197 3.707-4.062 5.552-19.457 15.391-22.743 19.865-23.188z" fill="#d3dcfb"/><path d="m430.346 382.575c-3.121-1.894-6.472-3.583-10.071-5.033l-11.524-4.275-143.357 99.021c-5.655 3.906-13.136 3.906-18.79 0l-142.856-98.675-18.901 7.139c-1.111.594-2.195 1.214-3.252 1.857-7.271 4.422-7.14 15.048.136 19.461l164.056 99.519c6.275 3.807 14.148 3.807 20.423 0l164.051-99.516c7.301-4.427 7.385-15.068.085-19.498z" fill="#ffdd40"/><path d="m155.632 409.451-51.883-35.837-18.901 7.139c-1.111.594-2.194 1.214-3.252 1.857-7.271 4.422-7.141 15.048.135 19.461l57.84 35.087c.328-.831.479-1.736.443-2.65-.369-9.42 6.278-17.874 15.618-25.057z" fill="#ffb332"/><path d="m265.612 430.883c-4.764 6.491-14.459 6.491-19.224 0l-63.874-87.019-80.55 30.424 144.641 99.909c5.654 3.906 13.135 3.906 18.79 0l145.154-100.262-81.062-30.069z" fill="#ffb332"/><path d="m154.341 410.467c16.813-13.522 43.561-22.73 52.818-25.655 1.448-.458 2.661-1.424 3.439-2.688l-28.084-38.259-80.55 30.424z" fill="#ff9100"/><g><path d="m405.413 64.987-136.309-62.141c-8.324-3.795-17.885-3.795-26.209 0l-136.308 62.141c-12.64 5.762-12.64 23.718 0 29.481l52.219 23.806v-14.198c0-6.396 10.256-13.204 27.436-18.211 38.497-11.22 101.039-11.215 139.517 0 17.18 5.008 27.436 11.815 27.436 18.211v14.198l52.219-23.806c12.639-5.763 12.639-23.719-.001-29.481z" fill="#3c58a0"/></g><path d="m106.587 64.987c-12.64 5.762-12.64 23.719 0 29.481l52.218 23.806v-14.198c0-6.396 10.256-13.204 27.436-18.211 17.249-5.028 39.327-7.794 61.904-8.315 4.111-1.751 7.855-2.506 7.855-2.506-54.982-29.191-13.105-72.196-13.105-72.196z" fill="#2a428c"/><path d="m256 75.043c-55.012 0-99.609 12.998-99.609 29.032v68.444h.518c5.116-14.635 47.527-26.054 99.09-26.054s93.975 11.419 99.09 26.054h.518v-68.444c.001-16.034-44.595-29.032-99.607-29.032z" fill="#2a428c"/><path d="m256 75.043c-55.012 0-99.609 12.998-99.609 29.032v68.444h.518c4.864-13.914 43.446-24.913 91.545-25.964v-.008c-11.101-4.278-10.877-15.625-10.877-15.625s0-31.963 0-42.072c.001-10.11 18.423-13.807 18.423-13.807z" fill="#1c2e7a"/><g><path d="m315.4 211.089c-5.268 0-9.538-4.27-9.538-9.538v-37.319c0-5.268 4.27-9.538 9.538-9.538s9.538 4.27 9.538 9.538v37.319c.001 5.268-4.27 9.538-9.538 9.538z" fill="#ffdd40"/></g><path d="m315.4 154.694c-5.268 0-9.538 4.27-9.538 9.538v28.198c0-5.268 4.271-9.538 9.538-9.538 5.268 0 9.538 4.27 9.538 9.538v-28.198c.001-5.268-4.27-9.538-9.538-9.538z" fill="#ffb332"/><g><path d="m315.4 140.998c-3.951 0-7.154-3.203-7.154-7.154v-125.779c0-3.951 3.203-7.154 7.154-7.154s7.154 3.203 7.154 7.154v125.78c0 3.951-3.203 7.153-7.154 7.153z" fill="#ffdd40"/></g><path d="m334.097 149.819c0 10.326-8.371 18.697-18.697 18.697s-18.697-8.371-18.697-18.697 8.371-18.697 18.697-18.697 18.697 8.371 18.697 18.697z" fill="#ffb332"/><circle cx="319.15" cy="143.866" fill="#ffdd40" r="7.998"/><g fill="#9bd8f9"><path d="m390.99 168.516c-3.746 49.71-9.904 77.32-27.31 112.962-6.736 13.793-1.61 30.421 11.618 38.209 27.787 16.359 74.958 38.268 112.726 26.178 8.413-24.748 12.978-51.274 12.978-78.868 0-45.809-12.586-88.673-34.467-125.347-26.663-7.958-72.371-15.259-75.545 26.866z"/><path d="m148.832 281.479c-17.406-35.643-23.564-63.252-27.31-112.962-3.199-42.457-49.602-34.707-76.168-26.677-21.813 36.633-34.356 79.428-34.356 125.159 0 27.525 4.541 53.988 12.914 78.683 37.863 12.5 85.373-9.551 113.302-25.993 13.227-7.789 18.353-24.417 11.618-38.21z"/></g></g></svg>