<svg id="Layer_1" height="512" viewBox="0 0 512 512" width="512" xmlns="http://www.w3.org/2000/svg" data-name="Layer 1"><path d="m437.607 132.541v77.22a23.1 23.1 0 1 0 14-.871v-76.349a7 7 0 0 0 -14 0z"/><path d="m324.461 322.627a9.364 9.364 0 1 0 -9.364-9.364 9.374 9.374 0 0 0 9.364 9.364z"/><path d="m380.505 234.073v-73.286l-119.623 46.026a45.868 45.868 0 0 1 -29.38 0l-122.009-46.944v74.188c86.279 27.743 184.673 27.72 271.012.016z"/><path d="m255.854 193.746 193.6-74.488-193.6-74.487c-5.056-1.947-14.268-1.947-19.324 0l-193.6 74.487 193.6 74.488c5.056 1.947 14.27 1.947 19.324 0z"/><path d="m94.025 285.492a32.569 32.569 0 0 0 0 63.833 7 7 0 0 1 5.408 5.154 151.321 151.321 0 0 0 293.392.03 7 7 0 0 1 5.429-5.156 32.576 32.576 0 0 0 0-63.888 7 7 0 0 1 -5.429-5.157 150.226 150.226 0 0 0 -11.929-31.68 460.7 460.7 0 0 1 -135.939 20.216 459.863 459.863 0 0 1 -133.886-19.633 150.286 150.286 0 0 0 -11.638 31.127 7 7 0 0 1 -5.408 5.154zm230.436 4.408a23.364 23.364 0 1 1 -23.361 23.363 23.39 23.39 0 0 1 23.361-23.363zm-78.269 136.417a61.251 61.251 0 0 0 61.181-61.181 7 7 0 0 1 14 0 75.182 75.182 0 0 1 -150.363 0 7 7 0 1 1 14 0 61.251 61.251 0 0 0 61.182 61.181zm-78.268-141.811a23.364 23.364 0 1 1 -23.364 23.363 23.39 23.39 0 0 1 23.364-23.363z"/><path d="m167.924 317.233a9.364 9.364 0 1 0 -9.364-9.364 9.374 9.374 0 0 0 9.364 9.364z"/></svg>